<?xml version="1.0" standalone="no"?>
<!DOCTYPE svg PUBLIC "-//W3C//DTD SVG 20010904//EN"
 "http://www.w3.org/TR/2001/REC-SVG-20010904/DTD/svg10.dtd">
<svg version="1.0" xmlns="http://www.w3.org/2000/svg"
 width="709.000000pt" height="430.000000pt" viewBox="0 0 709.000000 430.000000"
 preserveAspectRatio="xMidYMid meet">

<g transform="translate(0.000000,430.000000) scale(0.100000,-0.100000)"
fill="#000000" stroke="none">
<path d="M2590 3931 c-498 -203 -1282 -521 -1742 -707 -461 -186 -838 -342
-838 -346 0 -4 260 -138 578 -297 l578 -289 12 -226 c11 -218 11 -228 -8 -259
-24 -38 -26 -87 -5 -127 13 -25 12 -44 -5 -177 -16 -126 -58 -506 -75 -667 -4
-46 -2 -51 30 -81 56 -53 120 -79 205 -83 80 -4 155 10 163 31 2 6 -4 84 -14
172 -10 88 -23 292 -28 454 l-10 293 24 36 c29 42 31 78 10 129 -14 32 -14 57
-4 183 6 80 14 149 18 153 5 4 466 -221 1025 -500 l1018 -508 1783 895 c981
492 1781 898 1777 902 -7 7 -409 163 -1692 660 -1028 398 -1850 714 -1875 721
-13 3 -347 -128 -925 -362z m945 -996 c102 -51 116 -112 35 -159 -31 -19 -52
-21 -190 -21 -85 -1 -176 -6 -202 -13 -25 -6 -430 -109 -900 -227 -469 -119
-858 -221 -865 -228 -6 -7 -18 -96 -28 -207 -9 -107 -17 -200 -19 -205 -2 -6
-24 -9 -48 -7 l-45 4 -6 96 c-4 54 -10 165 -13 247 l-7 151 344 88 c389 100
1313 343 1463 384 92 25 100 30 123 65 36 56 69 68 193 65 94 -3 111 -6 165
-33z m-2185 -1459 c0 -154 16 -429 34 -594 11 -96 12 -129 3 -134 -34 -21
-141 2 -187 41 l-32 27 16 154 c25 229 66 581 71 610 5 23 9 25 50 22 l45 -4
0 -122z"/>
<path d="M1805 1857 c-6 -28 -125 -1154 -125 -1184 0 -26 76 -82 273 -202 407
-248 816 -397 1237 -453 127 -16 490 -16 610 0 485 68 938 246 1419 559 l113
74 -6 62 c-3 34 -24 246 -46 472 -52 541 -67 675 -72 680 -2 3 -383 -185 -846
-418 l-843 -422 -854 428 c-801 400 -855 425 -860 404z"/>
</g>
</svg>
