<?xml version="1.0" encoding="UTF-8"?>
<svg id="a" data-name="Layer_1" xmlns="http://www.w3.org/2000/svg" width="1513.33" height="1521.34" viewBox="0 0 1513.33 1521.34">
  <g>
    <path d="M1510.18,556.56c-2.84-8.77-10.28-15.15-16.71-21.98-16.85-16.95-47.29-47.31-85.47-85.52-92.36-92.19-204.13-204.26-299.07-299.07-43.93-44.03-84.85-84.79-127.22-127.21-19.58-18.97-24.1-27.24-47.88-10.38-113.88,76.31-231.16,155.66-346.1,232.92-75.69,50.68-248.67,180.82-256.55,193.26C266.08,546.07,69.39,858,5.99,965.93c-7.37,13.76,3.4,22.99,12.13,32.19,83.03,82.96,191.27,191.5,282.16,282.24,75.65,75.65,149.1,149.15,223.15,223.11,19.94,20.49,25.02,21.05,53.27,13.17,27.76-7.4,54.24-14.26,83.25-21.99,176.61-46.51,387.88-102.67,559.45-147.9,28.44-7.55,50.59-13.3,64.67-17.18,9.75-2.76,15.92-4.88,20.12-8.25,6.23-5.53,8.49-13.33,11.07-22.4,28.22-103.17,111.96-418.82,163.11-608.6,12.86-48.09,23.09-86.01,28.71-107.36,2.12-8.78,5.09-17.62,3.13-26.26l-.04-.14Z" style="fill: #98d4bc;"/>
    <path d="M603.73,1340.53c-134.9-80.44-309.28-184.48-451.85-269.64-46.63-27.88-89.85-53.45-134.8-80.57-23.8-13.48-17.14-22.72-12.78-43.94,51.89-215.35,113.39-467.76,164.15-678.09,5.15-21.16,8.95-37.41,11.74-48.1,2.04-7.11,4.55-15.97,9.09-19.01C300.41,163.5,716.5,62.4,890.16,13.71c20.47-5.33,36.07-9.61,46.42-12.04,6.71-1.37,15.65-3.19,19.47.51,5.45,4.92,9.54,13.24,13.31,21.47,52.19,106.98,238.14,516.49,300.89,634.87,8.8,7.5,20.44,1.58,30.74-2.18,10.3-4.3,21.75-9.71,32.33-14.82,56.78-27.52,122.75-59.38,180-87.14" style="fill: #98d4bc;"/>
  </g>
  <g>
    <path d="M1440.56,574.9c-2.58-7.97-9.34-13.77-15.19-19.98-15.31-15.4-42.97-42.99-77.67-77.72-83.94-83.78-185.51-185.62-271.78-271.78-39.92-40.02-77.11-77.06-115.62-115.61-17.79-17.24-21.9-24.75-43.51-9.43-103.49,69.35-210.07,141.46-314.53,211.68-68.79,46.05-135.22,91.2-191.48,128.97-9.01,6.16-14.72,10.26-19.33,14.81-8.67,8.82-15.17,20.54-22.33,31.85-59.15,97.68-237.9,381.15-295.51,479.24-6.69,12.51,3.09,20.89,11.02,29.25,75.45,75.39,173.82,174.03,256.41,256.49,68.75,68.75,135.5,135.55,202.8,202.75,18.12,18.62,22.74,19.13,48.41,11.97,25.23-6.73,49.29-12.96,75.65-19.99,160.5-42.27,352.49-93.31,508.41-134.41,25.84-6.86,45.98-12.08,58.77-15.61,8.86-2.51,14.47-4.43,18.29-7.49,5.66-5.02,7.71-12.11,10.06-20.35,25.64-93.76,101.74-380.61,148.23-553.08,11.68-43.7,20.98-78.16,26.09-97.57,1.93-7.98,4.62-16.01,2.84-23.87l-.03-.13Z" style="fill: none; stroke: #fff; stroke-miterlimit: 10; stroke-width: 40px;"/>
    <path d="M392,438.86c-2.3,4.06.37,9.7,1.27,14.61,56.55,212.24,191.36,725.89,219.57,828.04,3.58,10,7.76,3.52,15.75-3.54,145.53-145.56,505.18-504.64,592.39-592.69,7.24-8.22,3.84-9.34-7.48-13.04-193.7-55.85-443.75-127.47-641.44-184.33-78.2-22.45-139.41-40.08-164.87-47.33-5.91-1.26-10.76-3.93-15.15-1.76l-.04.04Z" style="fill: none; stroke: #fff; stroke-miterlimit: 10; stroke-width: 40px;"/>
    <path d="M562.36,1454c12.43-38.58,25.99-80.83,38.45-119.11,5.24-15.73,12.22-35.83,17.81-41.15,5.84-6.7,13.28-6.97,21.96-7.42,98.02-2.77,514.3-10.65,606.33-14.09,12.18-1.84,10.45-7.48,10.47-21.23-9.27-170.32-22.49-403.75-31.74-572.48" style="fill: none; stroke: #fff; stroke-miterlimit: 10; stroke-width: 40px;"/>
    <path d="M616.81,1287.35c-122.59-73.1-281.07-167.65-410.63-245.04-42.38-25.34-81.66-48.57-122.5-73.22-21.63-12.25-15.57-20.65-11.61-39.93,47.16-195.71,103.05-425.09,149.18-616.22,4.68-19.23,8.13-34,10.67-43.72,1.85-6.46,4.14-14.52,8.26-17.28,100.98-34.25,479.11-126.12,636.93-170.37,18.6-4.85,32.78-8.74,42.18-10.94,6.1-1.25,14.23-2.9,17.7.47,4.95,4.48,8.67,12.03,12.09,19.51,47.43,97.22,216.42,469.37,273.44,576.95,8,6.82,18.57,1.43,27.94-1.98,9.36-3.91,19.76-8.83,29.38-13.47,51.6-25.01,111.55-53.96,163.58-79.19" style="fill: none; stroke: #fff; stroke-miterlimit: 10; stroke-width: 40px;"/>
    <path d="M390.77,437.64c-47.28-57.56-104.08-126.7-151.79-184.79" style="fill: none; stroke: #fff; stroke-miterlimit: 10; stroke-width: 40px;"/>
  </g>
  <text transform="translate(750.05 1024.38) rotate(-45) scale(.81 1)" style="fill: #fff; font-family: AptosDisplay, Aptos; font-size: 1120.05px;"><tspan x="0" y="0">1</tspan></text>
</svg>